<svg width="2431" height="2405" viewBox="0 0 2431 2405" fill="none" xmlns="http://www.w3.org/2000/svg">
<path d="M23.4474 838.596C23.4474 838.596 -35.733 795.937 35.2835 738.976L200.742 591.025C200.742 591.025 248.086 541.214 298.143 584.613L1825 1740.6V2294.93C1825 2294.93 1824.26 2381.97 1712.55 2372.35L23.4474 838.596Z" fill="#2489CA"/>
<path d="M416.998 1195.9L23.4479 1553.69C23.4479 1553.69 -16.992 1583.78 23.4479 1637.53L206.167 1803.73C206.167 1803.73 249.566 1850.33 313.678 1797.32L730.9 1480.95L416.998 1195.9Z" fill="#1070B3"/>
<path d="M1107.93 1198.86L1829.68 647.739L1825 96.3751C1825 96.3751 1794.17 -23.9583 1691.35 38.6743L730.898 912.818L1107.93 1198.86Z" fill="#0877B9"/>
<path d="M1712.55 2373.09C1754.47 2416 1805.27 2401.94 1805.27 2401.94L2367.73 2124.78C2439.73 2075.71 2429.62 2014.81 2429.62 2014.81V359.728C2429.62 286.985 2355.15 261.834 2355.15 261.834L1867.66 26.8382C1761.13 -39 1691.35 38.6743 1691.35 38.6743C1691.35 38.6743 1781.1 -25.931 1825 96.3752V2284.82C1825 2299.86 1821.79 2314.65 1815.38 2327.97C1802.56 2353.86 1774.69 2378.03 1707.87 2367.92L1712.55 2373.09Z" fill="#3C99D4"/>
</svg>
